{"title":"Limitless [2011] 720p UNRATED BRRip XviD AC3 - CODY","uid":6513018,"size":2087815001,"categoryP":"video","categoryS":"hd___movies","magnet":"?xt=urn:btih:afbf5af39cbc4ff3aad474ecbb09d7f293947e1f&amp;dn=Limitless+%5B2011%5D+720p+UNRATED+BRRip+XviD+AC3+-+CODY&amp;tr=udp%3A%2F%2Ftracker.openbittorrent.com%3A80&amp;tr=udp%3A%2F%2Fopen.demonii.com%3A1337&amp;tr=udp%3A%2F%2Ftracker.coppersurfer.tk%3A6969&amp;tr=udp%3A%2F%2Fexodus.desync.com%3A6969","seeders":0,"leechers":1,"uploader":"CODYBOSS1969","files":4,"time":1309707988,"description":"General\nComplete name                    : Limitless [2011] 720p UNRATED BRRip XviD AC3 - CODY.avi\nFormat                           : AVI\nFormat/Info                      : Audio Video Interleave\nFile size                        : 1.94 GiB\nDuration                         : 1h 45mn\nOverall bit rate                 : 2 637 Kbps\nWriting application              : VirtualDubMod 1.5.10.2 (build 2540/release)\nWriting library                  : VirtualDubMod build 2540/release\n\nVideo\nID                               : 0\nFormat                           : MPEG-4 Visual\nFormat profile                   : Advanced Simple@L5\nFormat settings, BVOP            : 4\nFormat settings, QPel            : No\nFormat settings, GMC             : No warppoints\nFormat settings, Matrix          : Default (H.263)\nMuxing mode                      : Packed bitstream\nCodec ID                         : XVID\nCodec ID/Hint                    : XviD\nDuration                         : 1h 45mn\nBit rate                         : 2 180 Kbps\nWidth                            : 1 280 pixels\nHeight                           : 528 pixels\nDisplay aspect ratio             : 2.40:1\nFrame rate                       : 23.976 fps\nColor space                      : YUV\nChroma subsampling               : 4:2:0\nBit depth                        : 8 bits\nScan type                        : Progressive\nCompression mode                 : Lossy\nBits/(Pixel*Frame)               : 0.135\nStream size                      : 1.61 GiB (83%)\nWriting library                  : XviD 1.2.0.dev47 (UTC 2006-11-01)\n\nAudio\nID                               : 1\nFormat                           : AC-3\nFormat/Info                      : Audio Coding 3\nMode extension                   : CM (complete main)\nCodec ID                         : 2000\nDuration                         : 1h 45mn\nBit rate mode                    : Constant\nBit rate                         : 448 Kbps\nChannel(s)                       : 6 channels\nChannel positions                : Front: L C R, Side: L R, LFE\nSampling rate                    : 48.0 KHz\nBit depth                        : 16 bits\nCompression mode                 : Lossy\nStream size                      : 338 MiB (17%)\nAlignment                        : Split accross interleaves\nInterleave, duration             : 42 ms (1.00 video frame)\nInterleave, preload duration     : 500 ms\n\n\n\n\nSubtitles included               : Romanian\n\n\n\n\nIMDB link:                       &lt;a href=&quot; http://www.imdb.com/title/tt1219289/&quot; rel=&quot;nofollow&quot; target=&quot;_NEW&quot;&gt; http://www.imdb.com/title/tt1219289/&lt;/a&gt;\n\n\n\n\nPlaese seed alt least 1,5:1. This way this torrent will have the chance to survive!\n\n\n\n\nThanks. Enjoy !!","torrent":{"xt":"urn:btih:afbf5af39cbc4ff3aad474ecbb09d7f293947e1f","amp;dn":"Limitless+%5B2011%5D+720p+UNRATED+BRRip+XviD+AC3+-+CODY","amp;tr":["udp%3A%2F%2Ftracker.openbittorrent.com%3A80","udp%3A%2F%2Fopen.demonii.com%3A1337","udp%3A%2F%2Ftracker.coppersurfer.tk%3A6969","udp%3A%2F%2Fexodus.desync.com%3A6969"],"infoHash":"afbf5af39cbc4ff3aad474ecbb09d7f293947e1f","infoHashBuffer":{"type":"Buffer","data":[175,191,90,243,156,188,79,243,170,212,116,236,187,9,215,242,147,148,126,31]},"announce":[],"urlList":[]}}